<?xml version="1.0" standalone="no"?>
<!DOCTYPE svg PUBLIC "-//W3C//DTD SVG 20010904//EN"
 "http://www.w3.org/TR/2001/REC-SVG-20010904/DTD/svg10.dtd">
<svg version="1.0" xmlns="http://www.w3.org/2000/svg"
 width="1148.000000pt" height="802.000000pt" viewBox="0 0 1148.000000 802.000000"
 preserveAspectRatio="xMidYMid meet">

<g transform="translate(0.000000,802.000000) scale(0.100000,-0.100000)"
fill="#000000" stroke="none">
<path d="M1655 7991 c-22 -10 -55 -33 -73 -52 -52 -53 -62 -106 -62 -316 0
-195 -4 -217 -54 -271 -44 -49 -72 -56 -237 -62 -151 -5 -157 -6 -204 -35 -36
-22 -57 -45 -77 -84 l-28 -53 0 -1742 0 -1741 -87 -62 c-706 -501 -1000 -1402
-729 -2228 147 -444 461 -834 864 -1072 243 -143 517 -233 802 -263 137 -14
7868 -14 7998 1 751 82 1374 582 1611 1294 283 851 -59 1781 -824 2244 -217
132 -510 232 -755 259 l-65 7 -5 1660 c-5 1521 -6 1663 -22 1690 -21 39 -64
82 -103 103 -28 16 -227 17 -2527 22 l-2496 5 -43 30 c-76 54 -83 79 -89 326
-5 215 -5 216 -33 257 -15 23 -46 54 -69 69 l-42 28 -1305 2 c-1248 3 -1308 2
-1346 -16z m2663 -20 c43 -22 73 -53 96 -98 13 -26 16 -66 16 -216 0 -205 10
-261 58 -313 16 -18 44 -40 63 -50 33 -18 124 -19 2531 -24 l2496 -5 43 -30
c23 -16 53 -50 66 -74 22 -42 23 -54 23 -245 l0 -201 -23 32 c-30 43 -91 81
-141 88 -22 3 -1816 4 -3986 3 l-3945 -3 -48 -28 c-59 -35 -94 -86 -106 -157
-6 -30 -15 -251 -21 -490 -15 -603 -55 -1726 -78 -2188 l-7 -134 -87 -33 c-89
-34 -285 -129 -302 -146 -6 -5 -14 -9 -18 -9 -4 0 -8 780 -8 1733 l0 1733 23
44 c13 26 40 57 65 75 43 30 46 30 200 35 177 6 211 16 263 79 43 53 49 86 49
287 0 109 5 195 11 215 18 52 54 94 101 118 l43 21 1293 0 c1251 0 1294 -1
1330 -19z m5281 -1177 c34 -17 62 -41 79 -67 l27 -41 3 -1433 c2 -1206 0
-1433 -11 -1433 -11 0 -16 26 -21 101 -44 635 -419 1191 -988 1464 -427 205
-922 229 -1368 65 l-79 -28 -153 101 c-531 354 -1128 524 -1768 504 -233 -8
-415 -33 -640 -88 -600 -148 -1142 -482 -1549 -954 -261 -303 -484 -700 -591
-1052 -12 -40 -23 -73 -25 -73 -2 0 -43 9 -90 21 -287 68 -646 65 -933 -7 -57
-14 -106 -23 -109 -20 -3 3 0 124 6 268 20 467 50 1300 66 1833 22 753 19 704
43 752 23 45 69 84 117 101 21 7 1252 11 3981 11 l3950 1 53 -26z m-3939 -794
c525 -48 990 -211 1420 -498 l155 -104 105 36 c466 158 912 135 1340 -70 563
-270 932 -820 976 -1453 4 -56 10 -103 13 -105 3 -2 49 -9 101 -15 564 -68
1056 -365 1362 -820 331 -494 413 -1096 227 -1656 -236 -709 -851 -1202 -1601
-1284 -130 -15 -7841 -15 -7978 -1 -771 80 -1416 596 -1656 1325 -202 616 -92
1272 301 1793 455 603 1249 887 1993 712 51 -12 99 -20 106 -17 8 3 24 38 36
79 59 194 186 471 307 667 404 653 1047 1129 1786 1321 335 87 688 118 1007
90z"/>
</g>
</svg>
